<?xml version="1.0" encoding="UTF-8" standalone="no"?><!DOCTYPE svg PUBLIC "-//W3C//DTD SVG 1.1//EN" "http://www.w3.org/Graphics/SVG/1.1/DTD/svg11.dtd"><svg width="100%" height="100%" viewBox="0 0 827 329" version="1.1" xmlns="http://www.w3.org/2000/svg" xmlns:xlink="http://www.w3.org/1999/xlink" xml:space="preserve" xmlns:serif="http://www.serif.com/" style="fill-rule:evenodd;clip-rule:evenodd;stroke-linejoin:round;stroke-miterlimit:2;"><path d="M154.351,68.206l-0,154.523l-47.354,-0l-0,-21.046c-4.8,6.831 -11.308,12.323 -19.523,16.477c-8.216,4.154 -17.308,6.231 -27.277,6.231c-11.816,-0 -22.246,-2.631 -31.292,-7.893c-9.047,-5.261 -16.062,-12.877 -21.047,-22.846c-4.984,-9.969 -7.477,-21.692 -7.477,-35.169l0,-90.277l47.077,-0l0,83.908c0,10.338 2.677,18.369 8.031,24.092c5.354,5.723 12.554,8.584 21.6,8.584c9.231,0 16.523,-2.861 21.877,-8.584c5.354,-5.723 8.031,-13.754 8.031,-24.092l-0,-83.908l47.354,-0Zm214.616,-1.662c19.2,0 34.476,5.816 45.83,17.446c11.354,11.631 17.031,27.785 17.031,48.462l0,90.277l-47.077,-0l0,-83.908c0,-9.969 -2.631,-17.677 -7.892,-23.123c-5.262,-5.446 -12.508,-8.169 -21.739,-8.169c-9.23,-0 -16.477,2.723 -21.738,8.169c-5.262,5.446 -7.892,13.154 -7.892,23.123l-0,83.908l-47.077,-0l-0,-83.908c-0,-9.969 -2.631,-17.677 -7.893,-23.123c-5.261,-5.446 -12.507,-8.169 -21.738,-8.169c-9.231,-0 -16.477,2.723 -21.739,8.169c-5.261,5.446 -7.892,13.154 -7.892,23.123l-0,83.908l-47.354,-0l0,-154.523l47.354,-0l-0,19.384c4.8,-6.461 11.077,-11.584 18.831,-15.369c7.754,-3.785 16.523,-5.677 26.307,-5.677c11.631,0 22.016,2.492 31.154,7.477c9.139,4.985 16.293,12.092 21.462,21.323c5.354,-8.492 12.646,-15.415 21.877,-20.769c9.231,-5.354 19.292,-8.031 30.185,-8.031Zm149.815,158.4c-15.138,0 -28.754,-3.23 -40.846,-9.692c-12.092,-6.461 -21.6,-15.692 -28.523,-27.692c-6.923,-12 -10.385,-26.031 -10.385,-42.093c0,-15.877 3.508,-29.861 10.523,-41.954c7.016,-12.092 16.616,-21.369 28.8,-27.83c12.185,-6.462 25.846,-9.693 40.985,-9.693c15.138,0 28.8,3.231 40.985,9.693c12.184,6.461 21.784,15.738 28.8,27.83c7.015,12.093 10.523,26.077 10.523,41.954c-0,15.877 -3.554,29.862 -10.662,41.954c-7.108,12.093 -16.8,21.37 -29.077,27.831c-12.277,6.462 -25.984,9.692 -41.123,9.692Zm0,-40.984c9.046,-0 16.754,-3.323 23.123,-9.97c6.369,-6.646 9.554,-16.153 9.554,-28.523c0,-12.369 -3.092,-21.877 -9.277,-28.523c-6.185,-6.646 -13.8,-9.969 -22.846,-9.969c-9.231,-0 -16.892,3.277 -22.985,9.831c-6.092,6.554 -9.138,16.107 -9.138,28.661c-0,12.37 3,21.877 9,28.523c6,6.647 13.523,9.97 22.569,9.97Zm112.985,-131.816c-8.308,0 -15.092,-2.446 -20.354,-7.338c-5.262,-4.893 -7.892,-10.939 -7.892,-18.139c-0,-7.384 2.63,-13.523 7.892,-18.415c5.262,-4.893 12.046,-7.339 20.354,-7.339c8.123,0 14.815,2.446 20.077,7.339c5.261,4.892 7.892,11.031 7.892,18.415c0,7.2 -2.631,13.246 -7.892,18.139c-5.262,4.892 -11.954,7.338 -20.077,7.338Zm23.815,222.322c0,19.015 -4.8,32.723 -14.4,41.123c-9.6,8.4 -22.984,12.6 -40.154,12.6l-18.554,0l0,-40.154l11.354,0c5.17,0 8.862,-1.015 11.077,-3.046c2.216,-2.031 3.323,-5.354 3.323,-9.969l0,-206.814l47.354,-0l0,206.26Zm8.031,-129.276c0,-15.877 3,-29.815 9,-41.815c6,-12 14.169,-21.231 24.508,-27.692c10.338,-6.462 21.877,-9.693 34.615,-9.693c10.893,0 20.446,2.216 28.662,6.646c8.215,4.431 14.538,10.247 18.969,17.447l0,-21.877l47.354,-0l-0,154.523l-47.354,-0l0,-21.877c-4.615,7.2 -11.031,13.015 -19.246,17.446c-8.216,4.431 -17.769,6.646 -28.662,6.646c-12.554,0 -24,-3.277 -34.338,-9.83c-10.339,-6.554 -18.508,-15.877 -24.508,-27.97c-6,-12.092 -9,-26.077 -9,-41.954Zm115.754,0.277c0,-11.815 -3.277,-21.138 -9.831,-27.969c-6.554,-6.831 -14.538,-10.246 -23.954,-10.246c-9.415,-0 -17.4,3.369 -23.953,10.108c-6.554,6.738 -9.831,16.015 -9.831,27.83c-0,11.816 3.277,21.185 9.831,28.108c6.553,6.923 14.538,10.385 23.953,10.385c9.416,-0 17.4,-3.416 23.954,-10.246c6.554,-6.831 9.831,-16.154 9.831,-27.97Z"/></svg>